<?xml version="1.0" encoding="UTF-8" standalone="no"?>
<svg xmlns="http://www.w3.org/2000/svg" xmlns:xlink="http://www.w3.org/1999/xlink" width="626.59027" height="674.94708">
  <defs>
    <linearGradient xlink:href="#a" id="p" x1="296.45163" x2="376.88602" y1="371.16986" y2="462.0083" gradientUnits="userSpaceOnUse"/>
    <linearGradient xlink:href="#b" id="o" x1="274.28448" x2="412.61993" y1="346.58801" y2="494.6452" gradientUnits="userSpaceOnUse"/>
    <linearGradient xlink:href="#c" id="n" x1="326.55643" x2="225.62852" y1="477.56024" y2="533.11139" gradientUnits="userSpaceOnUse"/>
    <linearGradient xlink:href="#d" id="m" x1="205.76562" x2="205.76562" y1="547.49536" y2="575.11993" gradientUnits="userSpaceOnUse"/>
    <linearGradient xlink:href="#d" id="l" x1="127.57388" x2="76.271141" y1="491.68262" y2="400.07632" gradientUnits="userSpaceOnUse"/>
    <linearGradient xlink:href="#e" id="k" x1="376.48245" x2="292.20929" y1="552.40924" y2="584.2027" gradientUnits="userSpaceOnUse"/>
    <linearGradient xlink:href="#f" id="j" x1="438.37167" x2="384.99438" y1="355.61139" y2="385.30859" gradientUnits="userSpaceOnUse"/>
    <linearGradient xlink:href="#d" id="i" x1="196.59277" x2="146.23192" y1="379.65738" y2="292.48178" gradientUnits="userSpaceOnUse"/>
    <linearGradient xlink:href="#g" id="h" x1="273.54736" x2="240.68657" y1="304.32083" y2="196.53674" gradientUnits="userSpaceOnUse"/>
    <linearGradient id="b">
      <stop offset="0" stop-color="#e9e9e9"/>
      <stop offset="1" stop-color="#bdbdbd"/>
    </linearGradient>
    <linearGradient id="d">
      <stop offset="0"/>
      <stop offset="1" stop-color="#b5b2b2"/>
    </linearGradient>
    <linearGradient id="c">
      <stop offset="0"/>
      <stop offset="1" stop-opacity="0"/>
    </linearGradient>
    <linearGradient id="e">
      <stop offset="0"/>
      <stop offset="1" stop-opacity="0"/>
    </linearGradient>
    <linearGradient id="f">
      <stop offset="0"/>
      <stop offset="1" stop-opacity="0"/>
    </linearGradient>
    <linearGradient id="g">
      <stop offset="0"/>
      <stop offset="1" stop-opacity="0"/>
    </linearGradient>
    <linearGradient id="a">
      <stop offset="0" stop-color="#f6f6f6"/>
      <stop offset="1" stop-color="#888585"/>
    </linearGradient>
  </defs>
  <g fill-rule="evenodd" transform="matrix(1.48754 0 0 1.5584 -104.19968029 -228.18476988)">
    <path fill="url(#h)" d="m265.44304 177.40803-13.38689 27.42381c-2.28662 4.68428-2.23805 10.18352-1.80615 15.41816 1.55561 18.85398 16.51541 24.39533 20.96875 35.71875 5.55797-1.22408 24.69929 5.63876 25.46747 2.11793 4.54538-20.83296-31.99925-77.00712-31.24318-80.67865z"/>
    <path fill="url(#i)" fill-opacity=".75" d="M157.4375 262s11.9211 61.36363 12.4375 92.4375c3.40337 1.02286 6.11061.2831 7.6875-3.34375 4.79585-11.03046-5.48476-79.34768-10.27301-107.47315L157.4375 262z"/>
    <path fill="url(#j)" d="M423.03125 345.84375c-1.35208.0586-2.75199.277-4.1875.625-14.73913 3.57313-19.40944 11.8179-20.5 23.34375 2.85992-2.0374 6.53222-3.64512 11.21875-4.78125 22.96822-5.56806 37.27377 30.3685 50.125 4.625l9.70589-19.44279c-18.23137-13.27324-27.11668-5.20416-46.36214-4.36971z"/>
    <path fill="url(#k)" d="m340.9065 526.83696-10.41488 21.37328c-1.13573 2.33073-.67882 5.67627.19588 9.82101 4.40371 20.86679 108.6243 20.19973 120.625-2.78125l12.29107-23.53704c-19.94111 18.74358-113.91549-5.66382-122.69707-4.876z"/>
    <path fill="url(#l)" fill-opacity=".75" d="M97.962763 346.02706 83.21875 381.09375c-9.364392 22.27197-10.834714 47.71616 11.4375 58.15625 22.27221 10.4401 23.9052-20.16322 46.71875-7.09375 24.11928 13.81748.29506 116.65605-1.75 125.28125l9.1875-18.15625c.9622-4.00424 59.70215-122.58209 34.99327-136.73734-22.81355-13.06947-86.424689-54.54977-85.843007-56.51685z"/>
    <path fill="url(#m)" d="M272.03125 539c-29.20575 8.78559-123.25.46875-123.25.46875s.013-.11149.0312-.1875l-9.1875 18.15625c-.0898.37858-.125.59375-.125.59375s113.09047 20.27093 123.125 0L272.03125 539z"/>
    <path fill="url(#n)" d="M288.88123 453.89021c-15.05713.40233-38.68581 16.99907-45.25981 32.16984-1.03508 2.38864 10.35597 7.92204 10.28483 10.0337 9.60444-9.71222 23.71879-10.31248 43.375-7.65625 24.78855 3.3498 48.68978 11.87013 51.6875 31.125 8.97212 5.07237 24.57662-27.25976 23.92729-36.9997-1.392-20.8802-78.34815-28.824-84.01481-28.67259z"/>
    <path fill="url(#o)" stroke="url(#p)" stroke-linejoin="round" stroke-width="5" d="M166.73227 243.44769s109.8144 26.83492 114.45445 5.56805c4.54537-20.83295-19.65236-23.0741-21.65355-47.32846-1.93335-23.43222 17.22288-46.78916 51.04049-46.40045 33.64032.38668 52.74184 21.42155 54.13386 44.85377 1.85002 31.14181-24.54805 31.08942-16.08548 48.87514 9.12542 19.17885 110.57652-5.18562 123.73453 10.82677 14.61614 17.78684 11.90945 66.89398-3.4027 91.25422-15.31215 24.36023-27.14427-10.20811-50.11249-4.64005-22.96822 5.56805-21.49887 22.50422-20.10686 45.47245 1.39202 22.96822 4.25338 35.187 27.2216 38.66703 22.96822 3.48003 34.33633-40.83239 42.99775-20.10686 8.66142 20.72553 9.58943 104.40101-8.35208 126.20922-16.47122 20.02105-116.23747 23.65082-120.64118 2.78403-5.02671-23.8189 19.95219-15.31216 18.56018-36.19236-1.39201-20.8802-26.21624-29.92829-51.96849-33.40832-25.75225-3.48003-41.99241-1.39201-51.0405 19.48819-9.04809 20.8802 23.35489 29.85096 16.39483 50.11249-7.34829 21.39168-123.11586 0-123.11586 0s27.03396-111.47592 1.85602-125.89989c-22.81355-13.06946-24.43757 17.55484-46.70978 7.11474-22.27222-10.4401-16.317494-34.491-11.445448-58.15523 4.872046-23.66423 18.962248-37.73568 35.573668-36.50169 13.53347 1.00534 42.53375 41.0644 49.49382 25.05625 6.96007-16.00815-10.82678-107.64904-10.82678-107.64904z"/>
  </g>
</svg>